<?xml version="1.0" standalone="no"?>
<!DOCTYPE svg PUBLIC "-//W3C//DTD SVG 20010904//EN"
 "http://www.w3.org/TR/2001/REC-SVG-20010904/DTD/svg10.dtd">
<svg version="1.0" xmlns="http://www.w3.org/2000/svg"
 width="226.000000pt" height="226.000000pt" viewBox="0 0 226.000000 226.000000"
 preserveAspectRatio="xMidYMid meet">
<metadata>
Created by potrace 1.11, written by Peter Selinger 2001-2013
</metadata>
<g transform="translate(0.000000,226.000000) scale(0.100000,-0.100000)"
fill="#000000" stroke="none">
<path d="M335 2251 c-96 -25 -170 -83 -212 -169 l-28 -57 -3 -1008 c-2 -684 1
-1007 8 -1007 5 0 10 3 10 8 0 4 34 45 75 92 l75 85 0 881 0 881 23 44 c16 31
36 51 67 67 l44 22 736 0 736 0 44 -22 c32 -17 51 -35 66 -66 22 -42 22 -46
22 -774 1 -702 0 -732 -18 -769 -11 -20 -34 -48 -52 -61 l-33 -23 -621 -3
-621 -2 -82 -81 c-45 -45 -80 -83 -78 -86 3 -2 317 -4 698 -4 514 -1 706 2
739 11 102 27 166 79 209 170 l26 55 2 780 c2 724 0 784 -16 832 -32 94 -97
159 -192 193 -51 18 -90 19 -824 19 -424 -1 -783 -4 -800 -8z"/>
<path d="M660 1764 l0 -54 68 0 67 0 0 -215 0 -215 52 0 c48 0 53 2 54 23 0
12 1 109 1 215 l1 192 67 0 67 0 2 54 1 54 -190 0 -190 0 0 -54z"/>
<path d="M1107 1813 c-2 -5 -3 -127 -3 -273 l1 -265 53 -3 c44 -3 52 0 53 15
0 10 1 75 1 146 0 70 3 127 7 127 3 -1 28 -30 55 -66 27 -36 52 -61 57 -57 4
4 28 35 53 67 25 33 47 58 47 55 1 -2 2 -67 3 -144 l1 -140 55 0 55 0 0 273
c0 249 -1 272 -17 272 -9 0 -54 -48 -104 -112 -48 -62 -89 -115 -92 -118 -4
-6 -54 48 -92 99 -85 115 -120 148 -133 124z"/>
<path d="M1273 1182 l-83 -3 0 -268 0 -269 128 2 c107 1 132 4 161 21 51 30
74 67 78 127 4 44 0 59 -20 88 -24 34 -24 35 -6 60 43 58 22 176 -38 216 -32
20 -111 30 -220 26z m153 -123 c19 -15 18 -63 -1 -79 -9 -7 -40 -14 -70 -15
l-55 -2 0 53 c0 29 4 54 10 56 22 7 102 -2 116 -13z m5 -216 c6 -6 13 -23 14
-37 4 -37 -28 -56 -92 -56 l-53 0 0 55 0 54 60 -2 c33 -2 65 -8 71 -14z"/>
<path d="M669 1169 c-3 -38 -4 -506 -1 -515 2 -8 40 -11 115 -9 128 2 183 20
238 76 72 73 93 206 50 305 -27 59 -52 88 -110 122 -40 24 -57 27 -168 30 -99
4 -123 2 -124 -9z m239 -119 c47 -29 72 -76 72 -135 0 -96 -61 -159 -158 -164
l-48 -2 0 161 0 160 51 0 c32 0 62 -7 83 -20z"/>
</g>
</svg>
